<svg width="24" height="24" viewBox="0 0 24 24" fill="none" xmlns="http://www.w3.org/2000/svg">

    <g id="iconCheckbox">
        <path d=
                      'M16 0H2a2 2 0 00-2 2v14a2 2 0 002 2h14a2 2 0 002-2V2a2 2 0 00-2-2zM7 14L2 9l1.41-1.41L7 11.17l7.59-7.59L16 5l-9 9z'
              fill='currentColor'/>
    </g>
    <g id="default-true">
        <rect x="4" y="6" width="16" height="12" fill="black"/>
        <path d="M19 3H5C3.89 3 3 3.9 3 5V19C3 20.1 3.89 21 5 21H19C20.11 21 21 20.1 21 19V5C21 3.9 20.11 3 19 3ZM10 17L5 12L6.41 10.59L10 14.17L17.59 6.58L19 8L10 17Z"
              fill="white"/>
    </g>
    <g id="disabled-true">
            <rect x="4" y="6" width="16" height="12" fill="#DCDAE0"/>
            <path d="M19 3H5C3.89 3 3 3.9 3 5V19C3 20.1 3.89 21 5 21H19C20.11 21 21 20.1 21 19V5C21 3.9 20.11 3 19 3ZM10 17L5 12L6.41 10.59L10 14.17L17.59 6.58L19 8L10 17Z"
                  fill="#808080"/>
    </g>

    <g id="vector-select">
    <path d="M0.676105 1.30553C0.675801 1.14977 0.730051 0.998809 0.829438 0.878868C0.885405 0.811362 0.954139 0.755561 1.0317 0.71466C1.10927 0.673759 1.19414 0.648561 1.28146 0.640511C1.36877 0.63246 1.45682 0.641715 1.54056 0.667744C1.62429 0.693774 1.70207 0.736067 1.76944 0.792201L5.34277 3.77887L8.92277 0.898869C8.99096 0.843492 9.06943 0.802137 9.15365 0.777183C9.23788 0.752228 9.32621 0.744166 9.41356 0.753458C9.50091 0.762751 9.58557 0.789216 9.66266 0.831332C9.73975 0.873447 9.80776 0.930384 9.86277 0.998869C9.92346 1.06785 9.96924 1.14862 9.99723 1.23613C10.0252 1.32364 10.0348 1.41599 10.0254 1.50738C10.016 1.59878 9.98787 1.68725 9.94267 1.76724C9.89747 1.84722 9.83622 1.91701 9.76277 1.9722L5.76277 5.1922C5.64348 5.29026 5.49385 5.34386 5.33944 5.34386C5.18502 5.34386 5.03539 5.29026 4.91611 5.1922L0.916105 1.85887C0.835427 1.79199 0.771651 1.70703 0.729952 1.61089C0.688253 1.51475 0.669805 1.41014 0.676105 1.30553Z" fill="black"/>
    </g>

    <g id="vector-select-up">
    <path d="M10.0277 4.67591C10.028 4.83168 9.97376 4.98264 9.87437 5.10258C9.81841 5.17008 9.74967 5.22588 9.67211 5.26678C9.59454 5.30769 9.50967 5.33288 9.42235 5.34093C9.33504 5.34898 9.24699 5.33973 9.16325 5.3137C9.07952 5.28767 9.00174 5.24538 8.93437 5.18924L5.36104 2.20258L1.78104 5.08258C1.71285 5.13795 1.63438 5.17931 1.55016 5.20426C1.46593 5.22922 1.3776 5.23728 1.29025 5.22799C1.2029 5.21869 1.11824 5.19223 1.04115 5.15011C0.964062 5.108 0.896054 5.05106 0.841039 4.98258C0.780348 4.9136 0.73457 4.83282 0.706577 4.74531C0.678584 4.65781 0.668982 4.56546 0.678372 4.47406C0.687762 4.38266 0.715942 4.2942 0.761143 4.21421C0.806344 4.13422 0.867591 4.06444 0.941039 4.00924L4.94104 0.789243C5.06033 0.691189 5.20996 0.637584 5.36437 0.637584C5.51879 0.637584 5.66842 0.691189 5.78771 0.789243L9.78771 4.12258C9.86838 4.18945 9.93216 4.27441 9.97386 4.37055C10.0156 4.46669 10.034 4.57131 10.0277 4.67591Z" fill="#FFFEFE"/>
    </g>

    <g id="vector-left">
    <path d="M4.22003 9.66669C4.12043 9.66703 4.02202 9.64505 3.93204 9.60236C3.84205 9.55967 3.76277 9.49737 3.70003 9.42002L0.480028 5.42002C0.381973 5.30073 0.328369 5.1511 0.328369 4.99669C0.328369 4.84227 0.381973 4.69264 0.480028 4.57335L3.81336 0.573354C3.92652 0.43721 4.08913 0.351594 4.26541 0.335341C4.4417 0.319087 4.61722 0.373529 4.75336 0.486688C4.88951 0.599847 4.97512 0.762454 4.99137 0.938739C5.00763 1.11502 4.95319 1.29054 4.84003 1.42669L1.86003 5.00002L4.74003 8.57335C4.82155 8.67121 4.87333 8.79037 4.88925 8.91674C4.90517 9.0431 4.88456 9.17139 4.82986 9.2864C4.77515 9.40142 4.68865 9.49836 4.58057 9.56576C4.4725 9.63315 4.34738 9.66818 4.22003 9.66669Z" fill="write"/>
    </g>

    <g id="vector-right">
    <path d="M0.66668 9.66679C0.510912 9.66709 0.359955 9.61284 0.240013 9.51346C0.172508 9.45749 0.116707 9.38876 0.0758054 9.31119C0.0349041 9.23363 0.00970653 9.14876 0.00165595 9.06144C-0.00639463 8.97412 0.00286005 8.88607 0.0288897 8.80234C0.0549194 8.7186 0.0972121 8.64082 0.153347 8.57346L3.14001 5.00012L0.260014 1.42012C0.204637 1.35193 0.163282 1.27347 0.138328 1.18924C0.113373 1.10501 0.105311 1.01669 0.114603 0.929335C0.123896 0.841982 0.150361 0.757328 0.192477 0.680237C0.234593 0.603146 0.291529 0.535138 0.360014 0.480123C0.428991 0.419432 0.509768 0.373654 0.597276 0.345661C0.684785 0.317668 0.777135 0.308066 0.86853 0.317456C0.959925 0.326846 1.04839 0.355026 1.12838 0.400227C1.20837 0.445428 1.27815 0.506675 1.33335 0.580123L4.55335 4.58012C4.6514 4.69941 4.70501 4.84904 4.70501 5.00346C4.70501 5.15787 4.6514 5.3075 4.55335 5.42679L1.22001 9.42679C1.15314 9.50747 1.06818 9.57124 0.97204 9.61294C0.8759 9.65464 0.771284 9.67309 0.66668 9.66679Z" fill="write"/>
    </g>

</svg>
